HIERARCHY
ROOT Hips
{
 OFFSET 0.000000 0.000000 0.000000
 CHANNELS 6 Xposition Yposition Zposition Yrotation Xrotation Zrotation
 JOINT Chest
 {
  OFFSET 0.000000 9.683257 -5.635273
  CHANNELS 3 Yrotation Xrotation Zrotation
  JOINT Chest2
  {
   OFFSET 0.000000 6.189608 0.013806
   CHANNELS 3 Yrotation Xrotation Zrotation
   JOINT Chest3
   {
    OFFSET 0.000000 8.853476 -0.007146
    CHANNELS 3 Yrotation Xrotation Zrotation
    JOINT Chest4
    {
     OFFSET 0.000000 11.016752 -0.007858
     CHANNELS 3 Yrotation Xrotation Zrotation
     JOINT Neck
     {
      OFFSET 0.000000 18.039045 0.005489
      CHANNELS 3 Yrotation Xrotation Zrotation
      JOINT Head
      {
       OFFSET 0.000000 10.104523 0.000000
       CHANNELS 3 Yrotation Xrotation Zrotation
       End Site
       {
        OFFSET 0.000000 16.115189 0.000000
       }
      }
     }
     JOINT RightCollar
     {
      OFFSET -3.054660 11.283034 0.002745
      CHANNELS 3 Yrotation Xrotation Zrotation
      JOINT RightShoulder
      {
       OFFSET -15.638414 0.000000 0.000000
       CHANNELS 3 Yrotation Xrotation Zrotation
       JOINT RightElbow
       {
        OFFSET -24.152676 0.000000 0.000000
        CHANNELS 3 Yrotation Xrotation Zrotation
        JOINT RightWrist
        {
         OFFSET -25.995235 0.000000 0.000000
         CHANNELS 3 Yrotation Xrotation Zrotation
         End Site
         {
          OFFSET -17.469086 1.473296 -1.368061
         }
        }
       }
      }
     }
     JOINT LeftCollar
     {
      OFFSET 3.054660 11.283034 0.002745
      CHANNELS 3 Yrotation Xrotation Zrotation
      JOINT LeftShoulder
      {
       OFFSET 15.638414 0.000000 0.000000
       CHANNELS 3 Yrotation Xrotation Zrotation
       JOINT LeftElbow
       {
        OFFSET 24.152676 0.000000 0.000000
        CHANNELS 3 Yrotation Xrotation Zrotation
        JOINT LeftWrist
        {
         OFFSET 25.995235 0.000000 0.000000
         CHANNELS 3 Yrotation Xrotation Zrotation
         End Site
         {
          OFFSET 17.469086 1.473296 -1.368061
         }
        }
       }
      }
     }
    }
   }
  }
 }
 JOINT RightHip
 {
  OFFSET -9.195393 0.017301 -0.003677
  CHANNELS 3 Yrotation Xrotation Zrotation
  JOINT RightKnee
  {
   OFFSET 0.000000 -39.318276 -0.001697
   CHANNELS 3 Yrotation Xrotation Zrotation
   JOINT RightAnkle
   {
    OFFSET 0.000000 -40.321874 -0.002850
    CHANNELS 3 Yrotation Xrotation Zrotation
    JOINT RightToe
    {
     OFFSET 0.000000 -6.381285 16.495073
     CHANNELS 3 Yrotation Xrotation Zrotation
     End Site
     {
      OFFSET 0.000000 -1.342477 5.249975
     }
    }
   }
  }
 }
 JOINT LeftHip
 {
  OFFSET 9.195393 0.017301 -0.003677
  CHANNELS 3 Yrotation Xrotation Zrotation
  JOINT LeftKnee
  {
   OFFSET 0.000000 -39.318276 -0.001697
   CHANNELS 3 Yrotation Xrotation Zrotation
   JOINT LeftAnkle
   {
    OFFSET 0.000000 -40.321874 -0.002850
    CHANNELS 3 Yrotation Xrotation Zrotation
    JOINT LeftToe
    {
     OFFSET 0.000000 -6.381285 16.495073
     CHANNELS 3 Yrotation Xrotation Zrotation
     End Site
     {
      OFFSET 0.000000 -1.342477 5.249975
     }
    }
   }
  }
 }
}
MOTION
Frames: 10
Frame Time: 0.004167
0.000000 87.524399 0.000000 0.000000 0.000000 0.000000 0.000000 0.000000 0.000000 0.000000 0.000000 0.000000 0.000000 0.000000 0.000000 0.000000 0.000000 0.000000 0.000000 0.000000 0.000000 0.000000 0.000000 0.000000 0.000000 0.000000 0.000000 0.000000 0.000000 0.000000 0.000000 0.000000 0.000000 0.000000 0.000000 0.000000 0.000000 0.000000 0.000000 0.000000 0.000000 0.000000 0.000000 0.000000 0.000000 0.000000 0.000000 0.000000 0.000000 0.000000 0.000000 0.000000 0.000000 0.000000 0.000000 0.000000 0.000000 0.000000 0.000000 0.000000 0.000000 0.000000 0.000000 0.000000 0.000000 0.000000 0.000000 0.000000 0.000000 0.000000 0.000000 0.000000
185.079227 87.519368 130.382190 -33.418163 -0.763371 0.902834 0.585733 5.358656 0.933106 0.156654 -14.729638 0.438853 0.109685 1.323819 0.336453 0.049933 11.370613 0.097522 1.400779 -2.747210 -1.133989 2.648258 -5.078876 -2.162279 0.535712 -6.809719 8.665034 -8.912134 -2.830461 74.557138 4.769317 18.006475 5.464754 0.700206 9.929874 -3.402768 0.436388 -3.982424 -9.004049 0.402262 -3.335545 -80.402053 0.670839 11.860375 2.655146 -4.436347 10.758365 -1.164292 -3.933880 0.588359 -3.440721 2.903317 2.561962 0.390213 -0.989706 -3.204801 2.473476 -0.000000 0.000000 -0.000000 3.495196 -3.131297 -0.441833 -2.050444 5.239178 -0.425482 -1.573528 -4.163614 0.843419 -0.000000 0.000000 -0.000000
185.073627 87.514076 130.389257 -33.421541 -0.751649 0.936495 0.583985 5.351820 0.910179 0.158934 -14.732948 0.427644 0.111150 1.321501 0.329031 0.049939 11.369951 0.095353 1.402348 -2.746249 -1.131265 2.651056 -5.077121 -2.157252 0.535342 -6.800189 8.658749 -8.910999 -2.834584 74.574648 4.771179 18.009857 5.464799 0.699495 9.929322 -3.405784 0.434477 -3.975309 -8.986282 0.402660 -3.340892 -80.406454 0.672268 11.861898 2.655341 -4.435775 10.758884 -1.168167 -4.000609 0.573838 -3.509549 3.061079 2.559413 0.467817 -1.076194 -3.193378 2.422777 -0.000000 -0.000000 -0.000000 3.530004 -3.139227 -0.448937 -2.126330 5.243763 -0.484651 -1.530249 -4.151980 0.870203 -0.000000 0.000000 0.000000
185.068023 87.508643 130.396364 -33.424913 -0.739828 0.970789 0.582202 5.344957 0.886851 0.161251 -14.736271 0.416239 0.112638 1.319173 0.321478 0.049944 11.369286 0.093145 1.403924 -2.745382 -1.128518 2.653865 -5.075540 -2.152186 0.534983 -6.790535 8.652383 -8.909903 -2.838762 74.592422 4.773112 18.013374 5.464841 0.698766 9.928751 -3.408972 0.432528 -3.968096 -8.968266 0.402976 -3.346347 -80.410820 0.673685 11.863498 2.655505 -4.435225 10.759448 -1.172164 -4.068117 0.559009 -3.579506 3.220803 2.556558 0.546542 -1.163876 -3.181523 2.371280 0.000000 -0.000000 0.000000 3.565280 -3.147256 -0.456267 -2.203347 5.248378 -0.544781 -1.486312 -4.140176 0.897413 -0.000000 0.000000 -0.000000
185.062418 87.503140 130.403491 -33.428278 -0.727956 1.005398 0.580404 5.338079 0.863323 0.163588 -14.739601 0.404735 0.114139 1.316840 0.313860 0.049950 11.368619 0.090918 1.405503 -2.744562 -1.125760 2.656681 -5.074047 -2.147100 0.534629 -6.780820 8.645976 -8.908827 -2.842968 74.610327 4.775082 18.016958 5.464882 0.698027 9.928172 -3.412245 0.430561 -3.960834 -8.950126 0.403252 -3.351856 -80.415167 0.675097 11.865136 2.655653 -4.434686 10.760036 -1.176222 -4.136010 0.543962 -3.650009 3.381509 2.553435 0.625818 -1.252166 -3.169483 2.319387 0.000000 0.000000 -0.000000 3.600793 -3.155323 -0.463716 -2.280935 5.252963 -0.605392 -1.442040 -4.128297 0.924832 -0.000000 -0.000000 0.000000
185.056812 87.497636 130.410619 -33.431636 -0.716081 1.040007 0.578608 5.331199 0.839795 0.165924 -14.742931 0.393231 0.115640 1.314507 0.306242 0.049955 11.367952 0.088691 1.407081 -2.743742 -1.123003 2.659497 -5.072554 -2.142014 0.534276 -6.771105 8.639569 -8.907751 -2.847175 74.628232 4.777051 18.020543 5.464922 0.697288 9.927593 -3.415518 0.428598 -3.953570 -8.931986 0.403530 -3.357365 -80.419513 0.676508 11.866774 2.655802 -4.434147 10.760624 -1.180281 -4.203893 0.528788 -3.720476 3.542215 2.550090 0.705072 -1.340480 -3.157506 2.267502 0.000000 0.000000 0.000000 3.636310 -3.163363 -0.471176 -2.358532 5.257460 -0.666004 -1.397752 -4.116440 0.952245 0.000000 -0.000000 0.000000
185.051209 87.492203 130.417726 -33.434986 -0.704254 1.074298 0.576832 5.324330 0.816470 0.168243 -14.746255 0.381825 0.117129 1.312178 0.298690 0.049960 11.367287 0.086483 1.408657 -2.742876 -1.120256 2.662307 -5.070975 -2.136947 0.533919 -6.761453 8.633201 -8.906658 -2.851353 74.646006 4.778984 18.024060 5.464964 0.696559 9.927023 -3.418705 0.426658 -3.946353 -8.913972 0.403848 -3.362821 -80.423878 0.677925 11.868374 2.655965 -4.433598 10.761189 -1.184278 -4.271371 0.513581 -3.790326 3.701941 2.546573 0.783734 -1.428231 -3.145838 2.216027 -0.000000 0.000000 -0.000000 3.671602 -3.171316 -0.478537 -2.435579 5.261816 -0.726137 -1.353772 -4.104700 0.979436 -0.000000 -0.000000 0.000000
185.045609 87.486911 130.424792 -33.438330 -0.692522 1.107955 0.575096 5.317486 0.793547 0.170525 -14.749565 0.370616 0.118594 1.309859 0.291268 0.049966 11.366624 0.084313 1.410227 -2.741916 -1.117532 2.665106 -5.069223 -2.131920 0.533554 -6.751923 8.626914 -8.905528 -2.855475 74.663516 4.780847 18.027442 5.465010 0.695848 9.926470 -3.421722 0.424762 -3.939229 -8.896209 0.404249 -3.368169 -80.428278 0.679353 11.869897 2.656160 -4.433028 10.761709 -1.188153 -4.338050 0.498441 -3.858980 3.859707 2.542942 0.861235 -1.514831 -3.134721 2.165365 0.000000 0.000000 -0.000000 3.706436 -3.179121 -0.485691 -2.511512 5.265979 -0.785310 -1.310420 -4.093172 1.006191 -0.000000 0.000000 0.000000
185.040014 87.481831 130.431797 -33.441666 -0.680934 1.140661 0.573416 5.310678 0.771227 0.172753 -14.752855 0.359701 0.120025 1.307553 0.284042 0.049972 11.365965 0.082201 1.411789 -2.740816 -1.114840 2.667888 -5.067211 -2.126951 0.533175 -6.742579 8.620747 -8.904342 -2.859513 74.680632 4.782602 18.030622 5.465063 0.695165 9.925945 -3.424483 0.422930 -3.932248 -8.878823 0.404773 -3.373355 -80.432731 0.680799 11.871305 2.656402 -4.432427 10.762160 -1.191845 -4.403538 0.483468 -3.925856 4.014531 2.539259 0.937004 -1.599692 -3.124399 2.115919 0.000000 0.000000 -0.000000 3.740580 -3.186718 -0.492529 -2.585771 5.269899 -0.843044 -1.268019 -4.081950 1.032293 -0.000000 0.000000 0.000000
185.034427 87.477032 130.438721 -33.444997 -0.669539 1.172099 0.571812 5.303922 0.749713 0.174907 -14.756119 0.349180 0.121408 1.305266 0.277078 0.049980 11.365312 0.080165 1.413339 -2.739530 -1.112193 2.670647 -5.064851 -2.122059 0.532777 -6.733481 8.614742 -8.903081 -2.863439 74.697221 4.784214 18.033531 5.465124 0.694519 9.925456 -3.426903 0.421182 -3.925456 -8.861939 0.405462 -3.378326 -80.437256 0.682267 11.872559 2.656706 -4.431783 10.762520 -1.195292 -4.467440 0.468769 -3.990377 4.165434 2.535592 1.010473 -1.682226 -3.115110 2.068090 0.000000 -0.000000 -0.000000 3.773803 -3.194048 -0.498941 -2.657792 5.273530 -0.898856 -1.226892 -4.071126 1.057529 -0.000000 -0.000000 0.000000
